<?xml version="1.0" encoding="iso-8859-1"?>
<!-- Generator: Adobe Illustrator 19.0.0, SVG Export Plug-In . SVG Version: 6.00 Build 0)  -->
<svg version="1.1" id="Layer_1" xmlns="http://www.w3.org/2000/svg" xmlns:xlink="http://www.w3.org/1999/xlink" x="0px" y="0px"
	 viewBox="0 0 485 485" style="enable-background:new 0 0 485 485;fill: white;" xml:space="preserve">
<path d="M463.436,395V0h-30v17.251H51.564V0h-30v395H0v90h485v-90H463.436z M253.436,240.584v35.5h-81.872v-35.5h-90v35.5h-30
	V166.167h30v35.5h150v-35.5h81.872v35.5h90v-35.5h30v109.916h-30v-35.5H253.436z M283.436,311.584v-41h30v41H283.436z
	 M343.436,270.584h30v41h-30V270.584z M141.564,270.584v41h-30v-41H141.564z M201.564,130.667v41h-30v-41H201.564z M141.564,171.667
	h-30v-41h30V171.667z M343.436,171.667v-41h30v41H343.436z M433.436,47.251v88.916h-30v-35.5h-90v35.5h-81.872v-35.5h-150v35.5h-30
	V47.251H433.436z M51.564,306.084h30v35.5h90v-35.5h81.872v35.5h150v-35.5h30V395H51.564V306.084z M455,455H30v-30h425V455z"/>
<g>
</g>
<g>
</g>
<g>
</g>
<g>
</g>
<g>
</g>
<g>
</g>
<g>
</g>
<g>
</g>
<g>
</g>
<g>
</g>
<g>
</g>
<g>
</g>
<g>
</g>
<g>
</g>
<g>
</g>
</svg>
