<?xml version="1.0" encoding="iso-8859-1"?>
<!-- Generator: Adobe Illustrator 19.0.0, SVG Export Plug-In . SVG Version: 6.00 Build 0)  -->
<svg version="1.1" id="Layer_1" xmlns="http://www.w3.org/2000/svg" xmlns:xlink="http://www.w3.org/1999/xlink" x="0px" y="0px"
	 viewBox="0 0 480 480" style="enable-background:new 0 0 480 480;fill: white;" xml:space="preserve">
<g>
	<path d="M0,87.5v305h480v-305H0z M450,179.038c-30.998-6.064-55.473-30.54-61.538-61.538H450V179.038z M450,209.453v61.093
		c-47.572,6.64-85.313,44.381-91.953,91.953H121.953c-6.64-47.572-44.381-85.313-91.953-91.953v-61.093
		c47.572-6.64,85.313-44.381,91.953-91.953h236.093C364.687,165.072,402.428,202.813,450,209.453z M91.538,117.5
		C85.473,148.498,60.998,172.973,30,179.038V117.5H91.538z M30,300.962c30.998,6.064,55.473,30.54,61.538,61.538H30V300.962z
		 M388.462,362.5c6.065-30.998,30.539-55.473,61.538-61.538V362.5H388.462z"/>
	<path d="M240,165c-41.355,0-75,33.645-75,75s33.645,75,75,75s75-33.645,75-75S281.355,165,240,165z M240,285
		c-24.813,0-45-20.187-45-45s20.187-45,45-45s45,20.187,45,45S264.813,285,240,285z"/>
</g>
<g>
</g>
<g>
</g>
<g>
</g>
<g>
</g>
<g>
</g>
<g>
</g>
<g>
</g>
<g>
</g>
<g>
</g>
<g>
</g>
<g>
</g>
<g>
</g>
<g>
</g>
<g>
</g>
<g>
</g>
</svg>
