<?xml version="1.0" encoding="iso-8859-1"?>
<!-- Generator: Adobe Illustrator 19.0.0, SVG Export Plug-In . SVG Version: 6.00 Build 0)  -->
<svg version="1.1" id="Layer_1" xmlns="http://www.w3.org/2000/svg" xmlns:xlink="http://www.w3.org/1999/xlink" x="0px" y="0px"
	 viewBox="0 0 485 485" style="enable-background:new 0 0 485 485;fill: white;" xml:space="preserve">
<g>
	<rect x="302.5" y="60" width="107.5" height="30"/>
	<rect x="336.25" y="120" width="40" height="30"/>
	<path d="M0,0v485h485V0H0z M455,227.5H257.5V30H455V227.5z M227.5,30v197.5H30V30H227.5z M30,257.5h197.5V455H30V257.5z M257.5,455
		V257.5H455V455H257.5z"/>
	<rect x="75" y="60" width="107.5" height="30"/>
	<rect x="108.75" y="120" width="40" height="30"/>
	<rect x="312.5" y="287.5" width="97.5" height="30"/>
	<rect x="336.25" y="347.5" width="40" height="30"/>
	<rect x="75" y="287.5" width="107.5" height="30"/>
	<rect x="108.75" y="347.5" width="40" height="30"/>
</g>
<g>
</g>
<g>
</g>
<g>
</g>
<g>
</g>
<g>
</g>
<g>
</g>
<g>
</g>
<g>
</g>
<g>
</g>
<g>
</g>
<g>
</g>
<g>
</g>
<g>
</g>
<g>
</g>
<g>
</g>
</svg>
