<?xml version="1.0" encoding="iso-8859-1"?>
<!-- Generator: Adobe Illustrator 19.0.0, SVG Export Plug-In . SVG Version: 6.00 Build 0)  -->
<svg version="1.1" id="Layer_1" xmlns="http://www.w3.org/2000/svg" xmlns:xlink="http://www.w3.org/1999/xlink" x="0px" y="0px"
	 viewBox="0 0 485.086 485.086" style="enable-background:new 0 0 485.086 485.086;fill: white;" xml:space="preserve">
<g>
	<path d="M479.755,278.716c-10.683-39.866-36.25-73.187-71.993-93.823c-3.665-2.116-7.416-4.057-11.225-5.859
		c0.341-4.182,0.523-8.409,0.523-12.678c0-85.201-69.315-154.517-154.517-154.517S88.027,81.155,88.027,166.356
		c0,4.269,0.182,8.495,0.523,12.678c-3.809,1.802-7.56,3.743-11.225,5.859c-35.743,20.636-61.311,53.957-71.993,93.823
		c-10.682,39.867-5.2,81.507,15.437,117.25c27.521,47.669,78.847,77.281,133.945,77.281c26.975,0,53.645-7.167,77.128-20.725
		c3.691-2.131,7.256-4.398,10.702-6.781c3.447,2.383,7.011,4.65,10.702,6.781c23.483,13.558,50.153,20.725,77.128,20.725
		c55.099,0,106.424-29.612,133.945-77.281C484.955,360.223,490.437,318.583,479.755,278.716z M118.027,166.356
		c0-68.659,55.858-124.517,124.517-124.517S367.06,97.697,367.06,166.356c0,0.741-0.015,1.479-0.028,2.217
		c-11.889-2.901-24.11-4.405-36.398-4.405c-31.935,0-62.591,9.965-88.091,27.61c-25.5-17.646-56.156-27.61-88.091-27.61
		c-12.288,0-24.509,1.503-36.398,4.405C118.042,167.834,118.027,167.097,118.027,166.356z M242.543,406.848
		c-24.136-24.098-37.042-56.962-36.507-90.344c11.71,2.847,23.933,4.368,36.507,4.368s24.797-1.521,36.507-4.368
		C279.585,349.885,266.679,382.75,242.543,406.848z M242.543,290.872c-11.187,0-22.03-1.492-32.35-4.271
		c2.753-10.328,6.883-20.464,12.476-30.151c5.519-9.559,12.228-18.216,19.874-25.829c7.646,7.614,14.355,16.27,19.874,25.829
		c5.593,9.688,9.723,19.824,12.476,30.151C264.573,289.381,253.73,290.872,242.543,290.872z M182.218,275.249
		c-29.179-16.229-51.188-43.84-59.989-76.795c10.487-2.83,21.325-4.287,32.223-4.287c22.994,0,45.164,6.41,64.286,17.911
		c-8.405,8.786-15.838,18.613-22.049,29.371C190.402,252.339,185.607,263.685,182.218,275.249z M288.398,241.45
		c-6.211-10.758-13.644-20.585-22.049-29.371c19.122-11.5,41.292-17.911,64.286-17.911c10.897,0,21.736,1.456,32.223,4.287
		c-8.8,32.954-30.81,60.566-59.989,76.795C299.479,263.685,294.685,252.339,288.398,241.45z M154.713,443.247
		c-44.415,0-85.785-23.865-107.965-62.281c-16.63-28.804-21.047-62.359-12.439-94.485c8.608-32.126,29.212-58.978,58.016-75.607
		c0.638-0.368,1.286-0.716,1.929-1.072c12.482,42.532,42.801,77.508,82.272,96.238c-3.515,43.551,11.617,87.298,42.214,119.374
		c-0.63,0.379-1.259,0.76-1.899,1.129C197.912,437.471,176.429,443.247,154.713,443.247z M438.338,380.966
		c-22.18,38.417-63.55,62.281-107.965,62.281c-21.716,0-43.199-5.776-62.128-16.705c-0.64-0.369-1.269-0.75-1.899-1.129
		c30.597-32.076,45.729-75.823,42.214-119.374c39.472-18.73,69.791-53.705,82.272-96.238c0.644,0.357,1.292,0.704,1.929,1.072
		c28.804,16.63,49.407,43.481,58.016,75.607C459.385,318.607,454.968,352.162,438.338,380.966z"/>
</g>
<g>
</g>
<g>
</g>
<g>
</g>
<g>
</g>
<g>
</g>
<g>
</g>
<g>
</g>
<g>
</g>
<g>
</g>
<g>
</g>
<g>
</g>
<g>
</g>
<g>
</g>
<g>
</g>
<g>
</g>
</svg>
