<?xml version="1.0" encoding="iso-8859-1"?>
<!-- Generator: Adobe Illustrator 19.0.0, SVG Export Plug-In . SVG Version: 6.00 Build 0)  -->
<svg version="1.1" id="Layer_1" xmlns="http://www.w3.org/2000/svg" xmlns:xlink="http://www.w3.org/1999/xlink" x="0px" y="0px"
	 viewBox="0 0 475.902 475.902" style="enable-background:new 0 0 475.902 475.902;fill: white;" xml:space="preserve">
<path d="M437.049,385.902V207.266H298.24c-1.996-11.852-3.96-23.428-5.864-34.538c-4.81-28.07,10.706-41.218,28.672-56.442
	c14.504-12.291,30.944-26.221,30.944-48.48C351.992,25.363,294.009,0,237.951,0S123.91,25.363,123.91,67.807
	c0,22.259,16.439,36.189,30.944,48.48c17.966,15.224,33.482,28.372,28.672,56.442c-1.904,11.11-3.868,22.686-5.864,34.538H38.854
	v178.636h-16v90h430.195v-90H437.049z M407.049,237.266v148.636h-79.481c-6.742-41.837-15.597-96.346-24.306-148.636H407.049z
	 M178.722,385.902c6.849-42.468,15.699-96.884,24.332-148.636h69.794c8.633,51.751,17.483,106.168,24.332,148.636H178.722z
	 M302.007,415.902c1.924,11.991,3.553,22.179,4.801,30H169.095c1.248-7.821,2.877-18.009,4.801-30H302.007z M174.249,93.399
	c-12.61-10.685-20.338-17.638-20.338-25.592c0-11.996,16.003-21.267,22.884-24.696C193.512,34.779,215.802,30,237.951,30
	s44.439,4.779,61.157,13.11c6.881,3.429,22.884,12.7,22.884,24.696c0,7.954-7.729,14.907-20.338,25.592
	c-19.645,16.647-46.55,39.445-38.847,84.397c1.631,9.52,3.307,19.384,5.009,29.471h-59.73c1.702-10.086,3.378-19.95,5.009-29.47
	C220.798,132.844,193.894,110.045,174.249,93.399z M68.854,237.266H172.64c-8.708,52.29-17.564,106.799-24.306,148.636H68.854
	V237.266z M52.854,415.902h90.659c-1.994,12.434-3.629,22.672-4.797,30H52.854V415.902z M423.049,445.902h-85.862
	c-1.168-7.328-2.803-17.566-4.797-30h90.659V445.902z"/>
<g>
</g>
<g>
</g>
<g>
</g>
<g>
</g>
<g>
</g>
<g>
</g>
<g>
</g>
<g>
</g>
<g>
</g>
<g>
</g>
<g>
</g>
<g>
</g>
<g>
</g>
<g>
</g>
<g>
</g>
</svg>
