<?xml version="1.0" encoding="iso-8859-1"?>
<!-- Generator: Adobe Illustrator 19.0.0, SVG Export Plug-In . SVG Version: 6.00 Build 0)  -->
<svg version="1.1" id="Layer_1" xmlns="http://www.w3.org/2000/svg" xmlns:xlink="http://www.w3.org/1999/xlink" x="0px" y="0px"
	 viewBox="0 0 486.213 486.213" style="enable-background:new 0 0 486.213 486.213;fill: white;" xml:space="preserve">
<path d="M459.875,213.305c0-27.57-22.43-50-50-50c-8.333,0-16.19,2.06-23.106,5.681L217.783,0l-47.676,47.675
	c-45.809-17.108-98.139-6.09-133.162,28.935L26.338,87.216l178.111,178.111l10.606-10.607
	c35.024-35.024,46.042-87.352,28.934-133.163l26.462-26.462l95.104,95.104c-3.621,6.916-5.681,14.773-5.681,23.106
	c0,22.346,14.736,41.312,35,47.698v134.476H135.147l-29.879,90.733h319.607V261.003
	C445.139,254.617,459.875,235.651,459.875,213.305z M208.161,114.959l4.536,9.557c15.175,31.976,11.282,69.489-9.084,97.547
	L69.601,88.052c28.059-20.366,65.572-24.258,97.547-9.084l9.557,4.536l41.078-41.078l31.456,31.456L208.161,114.959z
	 M394.875,456.213H146.732l10.121-30.733h238.022V456.213z M409.875,233.305c-11.028,0-20-8.972-20-20s8.972-20,20-20
	s20,8.972,20,20S420.903,233.305,409.875,233.305z"/>
<g>
</g>
<g>
</g>
<g>
</g>
<g>
</g>
<g>
</g>
<g>
</g>
<g>
</g>
<g>
</g>
<g>
</g>
<g>
</g>
<g>
</g>
<g>
</g>
<g>
</g>
<g>
</g>
<g>
</g>
</svg>
