<?xml version="1.0" encoding="iso-8859-1"?>
<!-- Generator: Adobe Illustrator 19.0.0, SVG Export Plug-In . SVG Version: 6.00 Build 0)  -->
<svg version="1.1" id="Layer_1" xmlns="http://www.w3.org/2000/svg" xmlns:xlink="http://www.w3.org/1999/xlink" x="0px" y="0px"
	 viewBox="0 0 485 485" style="enable-background:new 0 0 485 485;fill: white;" xml:space="preserve">
<g>
	<path d="M275,229.395l-65-65L0,374.392v91.213h485V19.394L275,229.395z M160,256.82l35-35v213.785h-35V256.82z M130,435.606H95
		V321.82l35-35V435.606z M225,221.821l35,35v178.784h-35V221.821z M290,256.821l35-35v213.784h-35V256.821z M355,191.821l35-35
		v278.784h-35V191.821z M30,386.819l35-35v83.786H30V386.819z M455,435.606h-35V126.821l35-35V435.606z"/>
</g>
<g>
</g>
<g>
</g>
<g>
</g>
<g>
</g>
<g>
</g>
<g>
</g>
<g>
</g>
<g>
</g>
<g>
</g>
<g>
</g>
<g>
</g>
<g>
</g>
<g>
</g>
<g>
</g>
<g>
</g>
</svg>
