<?xml version="1.0" encoding="iso-8859-1"?>
<!-- Generator: Adobe Illustrator 19.0.0, SVG Export Plug-In . SVG Version: 6.00 Build 0)  -->
<svg version="1.1" id="Layer_1" xmlns="http://www.w3.org/2000/svg" xmlns:xlink="http://www.w3.org/1999/xlink" x="0px" y="0px"
	 viewBox="0 0 485 485" style="enable-background:new 0 0 485 485;fill: white;" xml:space="preserve">
<g>
	<path d="M470,30.001c-54.762,0-102.14,17.792-144.84,54.392c-36.986,31.702-66.452,73.797-94.949,114.505
		C174.018,279.174,120.94,354.999,15,354.999H0v100h485V30.001H470z M355,98.797c10.916-8.326,22.511-15.581,35-21.492v347.694h-35
		V98.797z M325,125.76v299.239h-35V167.167C301.201,152.449,312.729,138.471,325,125.76z M254.788,216.102
		c1.74-2.485,3.476-4.966,5.212-7.441v216.338h-35V257.814C235.216,244.061,245.059,230.001,254.788,216.102z M195,295.371v129.628
		h-35v-94.532C172.434,319.794,184.016,307.944,195,295.371z M130,424.999H95v-54.653c12.03-4.738,23.683-10.632,35-17.707V424.999z
		 M30,384.542c12.018-0.742,23.673-2.392,35-4.957v45.414H30V384.542z M455,424.999h-35V66.307c10.982-2.927,22.611-4.904,35-5.783
		V424.999z"/>
</g>
<g>
</g>
<g>
</g>
<g>
</g>
<g>
</g>
<g>
</g>
<g>
</g>
<g>
</g>
<g>
</g>
<g>
</g>
<g>
</g>
<g>
</g>
<g>
</g>
<g>
</g>
<g>
</g>
<g>
</g>
</svg>
