<?xml version="1.0" encoding="iso-8859-1"?>
<!-- Generator: Adobe Illustrator 19.0.0, SVG Export Plug-In . SVG Version: 6.00 Build 0)  -->
<svg version="1.1" id="Layer_1" xmlns="http://www.w3.org/2000/svg" xmlns:xlink="http://www.w3.org/1999/xlink" x="0px" y="0px"
	 viewBox="0 0 485 485" style="enable-background:new 0 0 485 485;fill: white;" xml:space="preserve">
<g>
	<path d="M63.042,0v485h358.916V0H63.042z M391.958,455H93.042V30h298.916V455z"/>
	<path d="M242.5,163.416c27.516,0,49.901-22.386,49.901-49.902S270.016,63.612,242.5,63.612s-49.901,22.386-49.901,49.902
		S214.984,163.416,242.5,163.416z M242.5,93.612c10.974,0,19.901,8.928,19.901,19.902s-8.928,19.902-19.901,19.902
		s-19.901-8.928-19.901-19.902S231.526,93.612,242.5,93.612z"/>
	<path d="M327.303,276.388c0-46.761-38.042-84.803-84.803-84.803c-46.761,0-84.803,38.042-84.803,84.803v15h169.606V276.388z
		 M189.783,261.388c6.54-22.95,27.698-39.803,52.717-39.803s46.176,16.854,52.716,39.803H189.783z"/>
	<rect x="128.042" y="391.388" width="114.458" height="30"/>
	<rect x="128.042" y="326.388" width="228.916" height="30"/>
</g>
<g>
</g>
<g>
</g>
<g>
</g>
<g>
</g>
<g>
</g>
<g>
</g>
<g>
</g>
<g>
</g>
<g>
</g>
<g>
</g>
<g>
</g>
<g>
</g>
<g>
</g>
<g>
</g>
<g>
</g>
</svg>
