<?xml version="1.0" encoding="iso-8859-1"?>
<!-- Generator: Adobe Illustrator 19.0.0, SVG Export Plug-In . SVG Version: 6.00 Build 0)  -->
<svg version="1.1" id="Layer_1" xmlns="http://www.w3.org/2000/svg" xmlns:xlink="http://www.w3.org/1999/xlink" x="0px" y="0px"
	 viewBox="0 0 485 485" style="enable-background:new 0 0 485 485;fill: white;" xml:space="preserve">
<g>
	<path d="M474.878,82.949L421.014,0H63.987L10.122,82.949l147.632,218.635c-16.561,19.438-26.574,44.618-26.574,72.096
		C131.179,435.062,181.118,485,242.5,485s111.321-49.938,111.321-111.321c0-27.478-10.013-52.658-26.574-72.096L474.878,82.949z
		 M438.898,82.625L304.685,281.388c-12.706-8.589-27.274-14.621-42.958-17.363l-1.342-2.066L407.87,34.842L438.898,82.625z
		 M349.269,70H135.732l-25.975-40h265.487L349.269,70z M329.788,100L242.5,234.417L155.213,100H329.788z M77.131,34.842
		l147.484,227.116l-1.342,2.066c-15.684,2.742-30.252,8.774-42.958,17.363L46.102,82.625L77.131,34.842z M242.5,455
		c-44.841,0-81.321-36.48-81.321-81.321s36.48-81.321,81.321-81.321s81.321,36.48,81.321,81.321S287.341,455,242.5,455z"/>
	<rect x="227.5" y="327.358" width="30" height="92.642"/>
</g>
<g>
</g>
<g>
</g>
<g>
</g>
<g>
</g>
<g>
</g>
<g>
</g>
<g>
</g>
<g>
</g>
<g>
</g>
<g>
</g>
<g>
</g>
<g>
</g>
<g>
</g>
<g>
</g>
<g>
</g>
</svg>
