<?xml version="1.0" encoding="iso-8859-1"?>
<!-- Generator: Adobe Illustrator 19.0.0, SVG Export Plug-In . SVG Version: 6.00 Build 0)  -->
<svg version="1.1" id="Layer_1" xmlns="http://www.w3.org/2000/svg" xmlns:xlink="http://www.w3.org/1999/xlink" x="0px" y="0px"
	 viewBox="0 0 466.701 466.701" style="enable-background:new 0 0 466.701 466.701;fill: white;" xml:space="preserve">
<g>
	<path d="M463.981,176.317c-7.388-22.738-28.405-38.015-52.3-38.015c-5.763,0-11.484,0.91-17.003,2.703
		c-13.973,4.54-25.341,14.249-32.011,27.339c-4.333,8.505-6.33,17.775-5.963,27.058l-41.196,13.385
		c-13.208-25.449-37.895-44.018-67.158-48.811v-43.319c23.057-6.547,40-27.777,40-52.904c0-30.327-24.673-55-55-55s-55,24.673-55,55
		c0,25.127,16.943,46.356,40,52.904v43.319c-29.264,4.792-53.951,23.362-67.158,48.811l-41.196-13.385
		c0.367-9.283-1.63-18.554-5.963-27.058c-6.67-13.09-18.038-22.799-32.01-27.338c-5.52-1.793-11.241-2.703-17.004-2.703
		c-23.895,0-44.912,15.277-52.3,38.015c-4.54,13.972-3.367,28.875,3.302,41.966c6.67,13.09,18.038,22.799,32.01,27.338
		c5.52,1.793,11.241,2.703,17.004,2.703c18.726,0,35.683-9.385,45.699-24.388l41.167,13.376c-0.69,4.548-1.05,9.204-1.05,13.942
		c0,25.307,10.219,48.269,26.742,64.987l-25.473,35.061c-6.016-2.216-12.403-3.36-18.946-3.36c-17.566,0-34.213,8.477-44.528,22.675
		c-8.636,11.885-12.126,26.422-9.827,40.932c2.298,14.51,10.109,27.257,21.995,35.892c9.46,6.874,20.628,10.507,32.295,10.507
		c17.566,0,34.213-8.477,44.529-22.675c14.768-20.328,13.539-47.462-1.265-66.311l25.472-35.059
		c12.49,6.298,26.59,9.852,41.506,9.852s29.017-3.554,41.506-9.852l25.472,35.06c-14.804,18.849-16.033,45.983-1.264,66.311
		c10.315,14.198,26.962,22.674,44.528,22.674c11.667,0,22.835-3.633,32.295-10.507c11.886-8.635,19.697-21.382,21.995-35.892
		c2.299-14.51-1.191-29.047-9.827-40.932c-10.315-14.198-26.962-22.675-44.528-22.675c-6.544,0-12.93,1.144-18.946,3.36
		l-25.473-35.061c16.524-16.718,26.742-39.68,26.742-64.987c0-4.738-0.36-9.394-1.05-13.942l41.167-13.376
		c10.016,15.003,26.973,24.388,45.699,24.388c5.763,0,11.484-0.91,17.003-2.703c13.973-4.54,25.341-14.249,32.011-27.339
		C467.349,205.192,468.521,190.289,463.981,176.317z M78.804,201.039c-3.359,10.338-12.911,17.285-23.769,17.285
		c-2.61,0-5.212-0.416-7.733-1.235c-6.351-2.063-11.518-6.477-14.55-12.426c-3.031-5.95-3.564-12.724-1.501-19.076
		c3.359-10.338,12.911-17.285,23.769-17.285c2.61,0,5.212,0.416,7.733,1.234c6.351,2.064,11.519,6.477,14.55,12.427
		S80.867,194.688,78.804,201.039z M208.351,63.754c0-13.785,11.215-25,25-25s25,11.215,25,25s-11.215,25-25,25
		S208.351,77.539,208.351,63.754z M143.367,417.639c-4.69,6.455-12.264,10.308-20.259,10.308c-5.29,0-10.36-1.652-14.662-4.777
		c-5.402-3.925-8.953-9.719-9.998-16.314c-1.044-6.596,0.542-13.203,4.467-18.605c4.69-6.455,12.264-10.309,20.259-10.309
		c5.29,0,10.359,1.652,14.662,4.778C148.987,390.822,151.469,406.487,143.367,417.639z M170.851,251.254
		c0-34.462,28.037-62.5,62.5-62.5s62.5,28.038,62.5,62.5s-28.037,62.5-62.5,62.5S170.851,285.716,170.851,251.254z M363.786,388.25
		c3.925,5.402,5.511,12.01,4.467,18.605c-1.045,6.595-4.596,12.389-9.998,16.314c-4.302,3.125-9.372,4.777-14.662,4.777
		c-7.995,0-15.568-3.854-20.258-10.308c-8.103-11.153-5.621-26.818,5.531-34.92c4.302-3.125,9.371-4.778,14.661-4.778
		C351.522,377.941,359.096,381.795,363.786,388.25z M433.949,204.663c-3.032,5.95-8.199,10.363-14.551,12.427
		c-2.521,0.819-5.122,1.234-7.732,1.234c-10.857,0-20.409-6.947-23.769-17.286c-2.063-6.351-1.53-13.125,1.501-19.075
		s8.199-10.363,14.551-12.427c2.521-0.819,5.122-1.234,7.732-1.234c10.857,0,20.409,6.947,23.769,17.286
		C437.514,191.939,436.98,198.713,433.949,204.663z"/>
</g>
<g>
</g>
<g>
</g>
<g>
</g>
<g>
</g>
<g>
</g>
<g>
</g>
<g>
</g>
<g>
</g>
<g>
</g>
<g>
</g>
<g>
</g>
<g>
</g>
<g>
</g>
<g>
</g>
<g>
</g>
</svg>
