<?xml version="1.0" encoding="iso-8859-1"?>
<!-- Generator: Adobe Illustrator 17.1.0, SVG Export Plug-In . SVG Version: 6.00 Build 0)  -->
<!DOCTYPE svg PUBLIC "-//W3C//DTD SVG 1.1//EN" "http://www.w3.org/Graphics/SVG/1.1/DTD/svg11.dtd">
<svg version="1.1" id="Capa_1" xmlns="http://www.w3.org/2000/svg" xmlns:xlink="http://www.w3.org/1999/xlink" x="0px" y="0px"
	 viewBox="0 0 297.333 297.333" style="enable-background:new 0 0 297.333 297.333;" xml:space="preserve">
<g>
	<path d="M289.333,183.752H280.3c0.013-0.432-0.3-0.861-0.3-1.297v-0.703v-45.297V90.752c0-23.71-18.957-43-42.667-43h-194
		c-23.71,0-43.333,19.29-43.333,43v45.703v45.297v0.703c0,23.71,19.623,43.297,43.333,43.297h58.495
		c3.896,13,16.539,23.828,31.505,23.828s27.609-10.828,31.505-23.828h72.495c17.559,0,32.684-10.881,39.355-26h12.646
		c4.418,0,8-3.582,8-8S293.751,183.752,289.333,183.752z M43.333,209.752C28.445,209.752,16,197.343,16,182.456v-0.703v-37h33v64
		c0,0.237,0.349,0,0.368,1H43.333z M100.333,209.752h-35h-0.035c0.02-1-0.298-0.763-0.298-1v-64.031c0-9.65,7.851-17.5,17.5-17.5
		s17.5,7.85,17.5,17.5v64.031c0,0.237,0.349,0,0.368,1H100.333z M133.333,233.284c-9.236,0-16.75-7.514-16.75-16.75
		c0-9.236,7.514-16.75,16.75-16.75s16.75,7.514,16.75,16.75C150.083,225.77,142.569,233.284,133.333,233.284z M264,181.752v0.703
		c0,14.888-11.779,27.297-26.667,27.297h-72.029c-3.245-15-16.509-25.82-32.137-25.82c-6.221,0-12.167,1.596-17.167,4.619v-43.799
		h33v6c0,4.418,3.915,8,8.333,8h66c4.418,0,7.667-3.582,7.667-8v-6h33V181.752z M165,142.752v-16h50v16H165z M264,128.752h-33v-10
		c0-4.418-3.249-8-7.667-8h-66c-4.418,0-8.333,3.582-8.333,8v10h-36.896c-5.729-11-16.7-17.234-29.271-17.234
		s-23.542,6.234-29.271,17.234H16v-38c0-14.888,12.445-27,27.333-27h194c14.888,0,26.667,12.112,26.667,27V128.752z"/>
</g>
<g>
</g>
<g>
</g>
<g>
</g>
<g>
</g>
<g>
</g>
<g>
</g>
<g>
</g>
<g>
</g>
<g>
</g>
<g>
</g>
<g>
</g>
<g>
</g>
<g>
</g>
<g>
</g>
<g>
</g>
</svg>
