<?xml version="1.0" encoding="iso-8859-1"?>
<!-- Generator: Adobe Illustrator 17.1.0, SVG Export Plug-In . SVG Version: 6.00 Build 0)  -->
<!DOCTYPE svg PUBLIC "-//W3C//DTD SVG 1.1//EN" "http://www.w3.org/Graphics/SVG/1.1/DTD/svg11.dtd">
<svg version="1.1" id="Capa_1" xmlns="http://www.w3.org/2000/svg" xmlns:xlink="http://www.w3.org/1999/xlink" x="0px" y="0px"
	 viewBox="0 0 297 297" style="enable-background:new 0 0 297 297;" xml:space="preserve">
<g>
	<path d="M272,246.5h-9.333v-64h3.46c10.742,0,19.455-4.25,23.905-11.66c4.449-7.411,4.107-17.099-0.941-26.58l-17.132-32.182
		c-0.001-0.002-0.001-0.003-0.002-0.005l-15.892-29.851C246.894,64.995,224.422,51.5,204.906,51.5h-1.239v-27
		c0-4.418-3.249-8-7.667-8h-8.333v-8c0-4.418-3.582-8-8-8c-4.418,0-8,3.582-8,8v8H164h-8.333v-8c0-4.418-3.582-8-8-8
		c-4.418,0-8,3.582-8,8v8H132h-8.333v-8c0-4.418-3.582-8-8-8s-8,3.582-8,8v8H100c-4.418,0-8.333,3.582-8.333,8v27.002
		c-19,0.042-41.745,13.521-50.9,30.72l-15.808,29.851c-0.001,0.002,0.04,0.003,0.04,0.005L7.887,144.26
		c-5.048,9.481-5.38,19.17-0.93,26.58c4.45,7.41,13.174,11.66,23.916,11.66h2.794v64H25c-13.785,0-25,11.215-25,25s11.215,25,25,25
		h247c13.785,0,25-11.215,25-25S285.785,246.5,272,246.5z M272,280.5h-59c-4.963,0-9-4.037-9-9s4.037-9,9-9h59c4.963,0,9,4.037,9,9
		S276.963,280.5,272,280.5z M136.934,213.5h23.133l10,16h-43.133L136.934,213.5z M139.667,245.5h16v35h-16V245.5z M171.667,245.5
		H184.5c0.006-0.001,0.012-0.001,0.02,0c4.419,0,8-3.582,8-8c0-1.747-0.559-3.364-1.511-4.68l-19.725-31.561
		c-1.462-2.339-4.025-3.76-6.784-3.76h-32c-2.759,0-5.322,1.421-6.784,3.76l-20,32c-1.541,2.467-1.623,5.575-0.213,8.118
		c1.41,2.544,4.089,4.122,6.997,4.122h11.167v35h-16.35c1.082-2.795,1.683-5.828,1.683-9c0-13.785-11.215-25-25-25H49.667v-64
		h17.471c0.008,0,0.014,0,0.021,0c4.418,0,8-3.582,8-8c0-0.494-0.045-0.979-0.131-1.448C75.009,172.844,75,172.661,75,172.5
		c0-4.411,3.589-8,8-8s8,3.589,8,8c0,0.27-0.024,0.599-0.076,1.008c-0.284,2.276,0.422,4.566,1.941,6.286
		c1.519,1.721,3.703,2.706,5.998,2.706h99.275c0.008,0,0.014,0,0.021,0c4.418,0,8-3.582,8-8c0-0.494-0.045-0.979-0.131-1.448
		c-0.018-0.208-0.027-0.391-0.027-0.552c0-4.411,3.589-8,8-8s8,3.589,8,8c0,0.27-0.024,0.599-0.076,1.008
		c-0.284,2.276,0.422,4.566,1.941,6.286c1.52,1.721,3.703,2.706,5.998,2.706h16.805v64H213c-13.785,0-25,11.215-25,25
		c0,3.172,0.601,6.205,1.683,9h-18.016V245.5z M16,271.5c0-4.963,4.037-9,9-9h59c4.963,0,9,4.037,9,9s-4.037,9-9,9H25
		C20.037,280.5,16,276.463,16,271.5z M20.685,162.602c-1.487-2.477-0.996-6.589,1.347-10.991L36.907,123.5h223.184l14.877,28.111
		c2.344,4.402,2.835,8.431,1.348,10.908c-1.488,2.477-5.201,3.98-10.188,3.98h-28.886c-2.672-10.34-12.078-18-23.241-18
		s-20.569,7.66-23.241,18h-84.518c-2.672-10.34-12.078-18-23.241-18s-20.569,7.66-23.241,18H30.873
		C25.886,166.5,22.173,165.079,20.685,162.602z M171.667,51.5v-19h16v19H171.667z M139.667,51.5v-19h16v19H139.667z M123.667,32.5
		v19h-16v-19H123.667z M204.906,67.5c2.134,0,4.349,0.249,6.591,0.714c0.897,0.187,1.799,0.407,2.701,0.661
		c0.902,0.254,1.806,0.54,2.707,0.857c10.365,3.645,20.424,11.178,25.037,19.842l9.631,17.926H45.426l9.631-17.926
		C61.475,77.518,78.435,67.5,92.092,67.5H204.906z"/>
</g>
<g>
</g>
<g>
</g>
<g>
</g>
<g>
</g>
<g>
</g>
<g>
</g>
<g>
</g>
<g>
</g>
<g>
</g>
<g>
</g>
<g>
</g>
<g>
</g>
<g>
</g>
<g>
</g>
<g>
</g>
</svg>
