<?xml version="1.0" encoding="iso-8859-1"?>
<!-- Generator: Adobe Illustrator 17.1.0, SVG Export Plug-In . SVG Version: 6.00 Build 0)  -->
<!DOCTYPE svg PUBLIC "-//W3C//DTD SVG 1.1//EN" "http://www.w3.org/Graphics/SVG/1.1/DTD/svg11.dtd">
<svg version="1.1" id="Capa_1" xmlns="http://www.w3.org/2000/svg" xmlns:xlink="http://www.w3.org/1999/xlink" x="0px" y="0px"
	 viewBox="0 0 297 297" style="enable-background:new 0 0 297 297;" xml:space="preserve">
<g>
	<path d="M74.834,198.598c-4.418,0-8,3.582-8,8v17c0,4.418,3.582,8,8,8c4.418,0,8-3.582,8-8v-17
		C82.834,202.18,79.252,198.598,74.834,198.598z"/>
	<path d="M74.834,148.598c-4.418,0-8,3.582-8,8v17c0,4.418,3.582,8,8,8c4.418,0,8-3.582,8-8v-17
		C82.834,152.18,79.252,148.598,74.834,148.598z"/>
	<path d="M74.834,99.598c-4.418,0-8,3.582-8,8v17c0,4.418,3.582,8,8,8c4.418,0,8-3.582,8-8v-17
		C82.834,103.18,79.252,99.598,74.834,99.598z"/>
	<path d="M279.833,247.918v-139.32c0-4.418-3.249-8-7.667-8h-83.333v-51c0-4.418-3.249-8-7.667-8h-32c-4.418,0-8.333,3.582-8.333,8
		v51h-8v-21c0-13.141-7-24.743-17-31.569v-6.346c0-22.762-18.324-41.28-41.001-41.28c-22.676,0-40.999,18.519-40.999,41.28v6.346
		c-10,6.826-17,18.429-17,31.569v168.32C6.833,251.263,0,260.61,0,271.598c0,13.785,11.381,25,25.167,25h235.5h0.02h11.48
		c13.785,0,24.833-11.215,24.833-25C297,260.61,289.833,251.263,279.833,247.918z M156.833,57.598h16v43h-16V57.598z M49.833,41.683
		c0-13.94,11.146-25.28,24.999-25.28c13.854,0,25.001,11.341,25.001,25.28v0.271c-2-0.228-48-0.228-50,0V41.683z M32.833,79.598
		c0-12.131,10.202-22,22.333-22h40c12.131,0,21.667,9.869,21.667,22v167h-84V79.598z M134.973,280.598H25.167c-4.963,0-9-4.037-9-9
		c0-4.963,4.037-9,9-9h119.865L134.973,280.598z M153.301,280.598l10.059-18h71.845l11.118,18H153.301z M165.833,246.598V180.79
		c0-18.303,14.804-33.192,32.999-33.192c18.197,0,33.001,14.89,33.001,33.192v65.808H165.833z M198.833,131.598
		c-27.019,0-48.999,22.067-48.999,49.192v65.808h-17v-130h131v130h-16V180.79C247.833,153.665,225.852,131.598,198.833,131.598z
		 M272.167,280.598h-7.038l-11.117-18h18.155c4.963,0,9,4.037,9,9C281.167,276.561,277.129,280.598,272.167,280.598z"/>
	<path d="M256.167,48.402c13.233,0,24-10.767,24-24s-10.767-24-24-24s-24,10.767-24,24S242.933,48.402,256.167,48.402z
		 M256.167,16.402c4.411,0,8,3.589,8,8s-3.589,8-8,8s-8-3.589-8-8S251.755,16.402,256.167,16.402z"/>
</g>
<g>
</g>
<g>
</g>
<g>
</g>
<g>
</g>
<g>
</g>
<g>
</g>
<g>
</g>
<g>
</g>
<g>
</g>
<g>
</g>
<g>
</g>
<g>
</g>
<g>
</g>
<g>
</g>
<g>
</g>
</svg>
