<?xml version="1.0" encoding="iso-8859-1"?>
<!-- Generator: Adobe Illustrator 17.1.0, SVG Export Plug-In . SVG Version: 6.00 Build 0)  -->
<!DOCTYPE svg PUBLIC "-//W3C//DTD SVG 1.1//EN" "http://www.w3.org/Graphics/SVG/1.1/DTD/svg11.dtd">
<svg version="1.1" id="Capa_1" xmlns="http://www.w3.org/2000/svg" xmlns:xlink="http://www.w3.org/1999/xlink" x="0px" y="0px"
	 viewBox="0 0 296.479 296.479" style="enable-background:new 0 0 296.479 296.479;" xml:space="preserve">
<g>
	<path d="M96.146,152.294c0-4.418-3.582-8-8-8h-32c-4.418,0-8,3.582-8,8v32c0,4.418,3.582,8,8,8h32c4.418,0,8-3.582,8-8V152.294z
		 M64.146,160.294h16v16h-16V160.294z"/>
	<path d="M163.146,152.294c0-4.418-3.582-8-8-8h-32c-4.418,0-8,3.582-8,8v32c0,4.418,3.582,8,8,8h32c4.418,0,8-3.582,8-8V152.294z
		 M131.146,160.294h16v16h-16V160.294z"/>
	<path d="M230.146,152.294c0-4.418-3.582-8-8-8h-32c-4.418,0-8,3.582-8,8v32c0,4.418,3.582,8,8,8h32c4.418,0,8-3.582,8-8V152.294z
		 M198.146,160.294h16v16h-16V160.294z"/>
	<path d="M288.479,218.294h-25.333v-90h9.145c2.334,0,4.552-0.965,6.071-2.735c1.332-1.553,2.011-3.521,1.92-5.542
		c-0.01-0.321-0.034-0.63-0.084-0.951l-15.52-100.993c-0.6-3.903-3.958-6.778-7.907-6.778H24.187c-3.93,0-7.277,2.854-7.899,6.734
		l-16.187,101c-0.052,0.324-0.078,0.648-0.09,0.974c-0.103,2.027,0.57,3.976,1.901,5.537c1.52,1.782,3.745,2.755,6.088,2.755h7.147
		v123c0,4.418,3.915,8,8.333,8h18.79c3.162,14.775,16.315,25.891,32.021,25.891c15.706,0,28.859-11.115,32.022-25.891h67.291
		c3.162,14.775,16.315,25.891,32.021,25.891c15.706,0,28.859-11.115,32.021-25.891h17.833c4.418,0,7.667-3.582,7.667-8v-17h25.333
		c4.418,0,8-3.582,8-8S292.897,218.294,288.479,218.294z M222.374,252.435c0,9.236-7.514,16.75-16.75,16.75
		s-16.75-7.514-16.75-16.75c0-9.236,7.514-16.75,16.75-16.75S222.374,243.198,222.374,252.435z M91.04,252.435
		c0,9.236-7.514,16.75-16.75,16.75c-9.236,0-16.75-7.514-16.75-16.75c0-9.236,7.514-16.75,16.75-16.75
		C83.527,235.685,91.04,243.198,91.04,252.435z M31.146,128.294h216v115h-10.079c-3.967-13.623-16.557-23.609-31.442-23.609
		c-14.886,0-27.476,9.986-31.442,23.609h-68.449c-3.967-13.623-16.557-23.609-31.442-23.609c-14.886,0-27.476,9.986-31.442,23.609
		H31.146V128.294z M249.907,27.294l2.706,18H28.185l2.822-18H249.907z M262.967,112.294H17.383l3.286-20h239.149L262.967,112.294z
		 M257.359,76.294H23.234l2.404-15h229.416L257.359,76.294z"/>
</g>
<g>
</g>
<g>
</g>
<g>
</g>
<g>
</g>
<g>
</g>
<g>
</g>
<g>
</g>
<g>
</g>
<g>
</g>
<g>
</g>
<g>
</g>
<g>
</g>
<g>
</g>
<g>
</g>
<g>
</g>
</svg>
