<?xml version="1.0" encoding="iso-8859-1"?>
<!-- Generator: Adobe Illustrator 19.0.0, SVG Export Plug-In . SVG Version: 6.00 Build 0)  -->
<svg version="1.1" id="Layer_1" xmlns="http://www.w3.org/2000/svg" xmlns:xlink="http://www.w3.org/1999/xlink" x="0px" y="0px"
	 viewBox="0 0 485 485" style="enable-background:new 0 0 485 485;" xml:space="preserve">
<g>
	<path d="M397.477,394.299c-25.007,0-45.351,20.344-45.351,45.351S372.47,485,397.477,485s45.351-20.344,45.351-45.351
		S422.483,394.299,397.477,394.299z M397.477,455c-8.465,0-15.351-6.886-15.351-15.351s6.886-15.351,15.351-15.351
		s15.351,6.886,15.351,15.351S405.941,455,397.477,455z"/>
	<path d="M116.334,394.299c-25.006,0-45.35,20.344-45.35,45.351S91.328,485,116.334,485s45.351-20.344,45.351-45.351
		S141.34,394.299,116.334,394.299z M116.334,455c-8.464,0-15.35-6.886-15.35-15.351s6.886-15.351,15.35-15.351
		c8.464,0,15.351,6.886,15.351,15.351S124.798,455,116.334,455z"/>
	<path d="M460,334.386V70H93.811v264.386h-30V0H0v30h33.811v334.386H485v-30H460z M430,246.257H123.811v-58.128H430V246.257z
		 M430,100v58.129H123.811V100H430z M123.811,276.257H430v58.129H123.811V276.257z"/>
</g>
<g>
</g>
<g>
</g>
<g>
</g>
<g>
</g>
<g>
</g>
<g>
</g>
<g>
</g>
<g>
</g>
<g>
</g>
<g>
</g>
<g>
</g>
<g>
</g>
<g>
</g>
<g>
</g>
<g>
</g>
</svg>
