<?xml version="1.0" encoding="iso-8859-1"?>
<!-- Generator: Adobe Illustrator 19.0.0, SVG Export Plug-In . SVG Version: 6.00 Build 0)  -->
<svg version="1.1" id="Layer_1" xmlns="http://www.w3.org/2000/svg" xmlns:xlink="http://www.w3.org/1999/xlink" x="0px" y="0px"
	 viewBox="0 0 485 485" style="enable-background:new 0 0 485 485;" xml:space="preserve">
<g>
	<path d="M303.333,224.375v110H485v-110h-75.833v-72.708H257.5V110h75V0h-180v110h75v41.667H75.833v71.667H0v110h181.667v-110
		h-75.833v-41.667H227.5V375h-75.833v110h181.667V375H257.5V181.667h121.667v42.708H303.333z M182.5,30h120v50h-120V30z
		 M151.667,303.333H30v-50h121.667V303.333z M303.333,455H181.667v-50h121.667V455z M455,304.375H333.333v-50H455V304.375z"/>
</g>
<g>
</g>
<g>
</g>
<g>
</g>
<g>
</g>
<g>
</g>
<g>
</g>
<g>
</g>
<g>
</g>
<g>
</g>
<g>
</g>
<g>
</g>
<g>
</g>
<g>
</g>
<g>
</g>
<g>
</g>
</svg>
