<?xml version="1.0" encoding="iso-8859-1"?>
<!-- Generator: Adobe Illustrator 19.0.0, SVG Export Plug-In . SVG Version: 6.00 Build 0)  -->
<svg version="1.1" id="Layer_1" xmlns="http://www.w3.org/2000/svg" xmlns:xlink="http://www.w3.org/1999/xlink" x="0px" y="0px"
	 viewBox="0 0 485 485" style="enable-background:new 0 0 485 485;" xml:space="preserve">
<g>
	<path d="M275,164.394l-65,65l-210-210v446.211h485v-91.213L275,164.394z M160,221.821l35,35v178.784h-35V221.821z M130,435.606H95
		V156.821l35,35V435.606z M225,256.821l35-35v213.785h-35V256.821z M290,221.821l35,35v178.785h-35V221.821z M355,286.82l35,35
		v113.786h-35V286.82z M30,91.821l35,35v308.785H30V91.821z M455,435.606h-35v-83.786l35,35V435.606z"/>
</g>
<g>
</g>
<g>
</g>
<g>
</g>
<g>
</g>
<g>
</g>
<g>
</g>
<g>
</g>
<g>
</g>
<g>
</g>
<g>
</g>
<g>
</g>
<g>
</g>
<g>
</g>
<g>
</g>
<g>
</g>
</svg>
