<?xml version="1.0" encoding="iso-8859-1"?>
<!-- Generator: Adobe Illustrator 19.0.0, SVG Export Plug-In . SVG Version: 6.00 Build 0)  -->
<svg version="1.1" id="Layer_1" xmlns="http://www.w3.org/2000/svg" xmlns:xlink="http://www.w3.org/1999/xlink" x="0px" y="0px"
	 viewBox="0 0 485 485" style="enable-background:new 0 0 485 485;" xml:space="preserve">
<g>
	<path d="M270.554,272.337h30c0-26.824-18.292-49.448-43.054-56.078v-12.579h-30v12.579c-24.762,6.63-43.053,29.253-43.053,56.078
		c0,27.442,14.402,47.104,40.552,55.365l2.501,0.79v57.858c-7.838-4.981-13.053-13.734-13.053-23.688h-30
		c0,26.824,18.291,49.448,43.053,56.078v12.579h30V418.74c24.762-6.63,43.054-29.253,43.054-56.078
		c0-27.442-14.401-47.104-40.553-55.365l-2.501-0.79v-57.858C265.338,253.63,270.554,262.383,270.554,272.337z M214.447,272.337
		c0-9.954,5.216-18.708,13.053-23.688v47.784C218.432,291.725,214.447,284.21,214.447,272.337z M270.554,362.663
		c0,9.954-5.216,18.708-13.054,23.688v-47.784C266.569,343.275,270.554,350.79,270.554,362.663z"/>
	<path d="M395,0h-15v150H105V0H90C40.374,0,0,40.374,0,90v305c0,49.626,40.374,90,90,90h305c49.626,0,90-40.374,90-90V90
		C485,40.374,444.626,0,395,0z M30,90c0-27.907,19.15-51.424,45-58.102V306.25c-17.112,2.883-32.602,10.612-45,21.723V90z M395,455
		H90c-33.084,0-60-26.916-60-60s26.916-60,60-60h15V180h275v155h15c33.084,0,60,26.916,60,60S428.084,455,395,455z M455,327.973
		c-12.398-11.11-27.888-18.84-45-21.723V31.898c25.85,6.678,45,30.195,45,58.102V327.973z"/>
</g>
<g>
</g>
<g>
</g>
<g>
</g>
<g>
</g>
<g>
</g>
<g>
</g>
<g>
</g>
<g>
</g>
<g>
</g>
<g>
</g>
<g>
</g>
<g>
</g>
<g>
</g>
<g>
</g>
<g>
</g>
</svg>
