<?xml version="1.0" encoding="iso-8859-1"?>
<!-- Generator: Adobe Illustrator 19.0.0, SVG Export Plug-In . SVG Version: 6.00 Build 0)  -->
<svg version="1.1" id="Layer_1" xmlns="http://www.w3.org/2000/svg" xmlns:xlink="http://www.w3.org/1999/xlink" x="0px" y="0px"
	 viewBox="0 0 490 490" style="enable-background:new 0 0 490 490;" xml:space="preserve">
<path d="M490,156.692V35.076h-55v-32.5H25v113.712H2.5v30H25V230H0v30h25v83.712H0v30h25v113.712h410v-32.5h55V333.308h-55v-27.5h55
	V184.192h-55v-27.5H490z M460,65.076v61.616h-25V65.076H460z M55,373.712h25v-30H55V260h25v-30H55v-83.712h25v-30H55V32.576h50
	v424.849H55V373.712z M405,457.424H135V32.576h270V457.424z M460,363.308v61.616h-25v-61.616H460z M460,214.192v61.616h-25v-61.616
	H460z"/>
<g>
</g>
<g>
</g>
<g>
</g>
<g>
</g>
<g>
</g>
<g>
</g>
<g>
</g>
<g>
</g>
<g>
</g>
<g>
</g>
<g>
</g>
<g>
</g>
<g>
</g>
<g>
</g>
<g>
</g>
</svg>
