<?xml version="1.0" encoding="iso-8859-1"?>
<!-- Generator: Adobe Illustrator 19.0.0, SVG Export Plug-In . SVG Version: 6.00 Build 0)  -->
<svg version="1.1" id="Layer_1" xmlns="http://www.w3.org/2000/svg" xmlns:xlink="http://www.w3.org/1999/xlink" x="0px" y="0px"
	 viewBox="0 0 480.606 480.606" style="enable-background:new 0 0 480.606 480.606;" xml:space="preserve">
<g>
	<path d="M200.743,176.658c27.516,0,49.901-22.386,49.901-49.902s-22.386-49.902-49.901-49.902s-49.901,22.386-49.901,49.902
		S173.227,176.658,200.743,176.658z M200.743,106.855c10.974,0,19.901,8.928,19.901,19.902s-8.928,19.902-19.901,19.902
		s-19.901-8.928-19.901-19.902S189.769,106.855,200.743,106.855z"/>
	<path d="M200.743,204.827c-46.761,0-84.803,38.042-84.803,84.803v15h169.606v-15C285.546,242.87,247.504,204.827,200.743,204.827z
		 M148.026,274.63c6.54-22.95,27.698-39.803,52.717-39.803s46.177,16.854,52.716,39.803H148.026z"/>
	<path d="M480.606,459.394L352.832,331.619c30.305-35.168,48.653-80.918,48.653-130.876C401.485,90.053,311.432,0,200.743,0
		C90.053,0,0,90.053,0,200.743s90.053,200.743,200.743,200.743c49.958,0,95.708-18.348,130.876-48.654l127.774,127.775
		L480.606,459.394z M30,200.743C30,106.595,106.595,30,200.743,30c94.147,0,170.742,76.595,170.742,170.743
		S294.89,371.485,200.743,371.485C106.595,371.485,30,294.891,30,200.743z"/>
</g>
<g>
</g>
<g>
</g>
<g>
</g>
<g>
</g>
<g>
</g>
<g>
</g>
<g>
</g>
<g>
</g>
<g>
</g>
<g>
</g>
<g>
</g>
<g>
</g>
<g>
</g>
<g>
</g>
<g>
</g>
</svg>
