<?xml version="1.0" encoding="iso-8859-1"?>
<!-- Generator: Adobe Illustrator 19.0.0, SVG Export Plug-In . SVG Version: 6.00 Build 0)  -->
<svg version="1.1" id="Layer_1" xmlns="http://www.w3.org/2000/svg" xmlns:xlink="http://www.w3.org/1999/xlink" x="0px" y="0px"
	 viewBox="0 0 485 485" style="enable-background:new 0 0 485 485;" xml:space="preserve">
<g>
	<path d="M242.5,0C144.281,0,64.374,79.907,64.374,178.126c0,61.105,31.541,117.992,82.884,150.539v61.093
		c0,52.517,42.726,95.242,95.242,95.242s95.242-42.726,95.242-95.242v-61.093c51.343-32.547,82.884-89.433,82.884-150.539
		C420.626,79.907,340.719,0,242.5,0z M177.258,335.173h130.484v39.584H177.258V335.173z M219.982,217.286h44.149l-11.927,87.887
		H231.91L219.982,217.286z M242.5,455c-30.812,0-56.685-21.477-63.482-50.242h126.964C299.185,433.523,273.312,455,242.5,455z
		 M318.66,305.173h-36.181l16.001-117.887H185.635l16.001,117.887H166.34c-44.483-26.729-71.966-75.047-71.966-127.047
		C94.374,96.449,160.823,30,242.5,30s148.126,66.449,148.126,148.126C390.626,230.127,363.144,278.445,318.66,305.173z"/>
</g>
<g>
</g>
<g>
</g>
<g>
</g>
<g>
</g>
<g>
</g>
<g>
</g>
<g>
</g>
<g>
</g>
<g>
</g>
<g>
</g>
<g>
</g>
<g>
</g>
<g>
</g>
<g>
</g>
<g>
</g>
</svg>
