<?xml version="1.0" encoding="iso-8859-1"?>
<!-- Generator: Adobe Illustrator 19.0.0, SVG Export Plug-In . SVG Version: 6.00 Build 0)  -->
<svg version="1.1" id="Layer_1" xmlns="http://www.w3.org/2000/svg" xmlns:xlink="http://www.w3.org/1999/xlink" x="0px" y="0px"
	 viewBox="0 0 485 485" style="enable-background:new 0 0 485 485;" xml:space="preserve">
<g>
	<path d="M156.106,173.803h30c0-26.824-18.291-49.448-43.053-56.078v-12.579h-30v12.579C88.292,124.356,70,146.979,70,173.803
		c0,27.442,14.401,47.104,40.553,55.365l2.501,0.79v57.858c-7.838-4.98-13.054-13.734-13.054-23.688H70
		c0,26.824,18.292,49.448,43.054,56.078v12.579h30v-12.579c24.762-6.63,43.053-29.253,43.053-56.078
		c0-27.442-14.401-47.104-40.553-55.365l-2.5-0.79v-57.858C150.891,155.096,156.106,163.849,156.106,173.803z M100,173.803
		c0-9.954,5.216-18.708,13.054-23.688v47.784C103.985,193.191,100,185.676,100,173.803z M156.106,264.128
		c0,9.954-5.215,18.708-13.053,23.688v-47.784C152.122,244.741,156.106,252.256,156.106,264.128z"/>
	<path d="M485,51.466H0v335h173.526l-13.74,47.068l114.843-33.525l13.543-13.543H485V51.466z M30,356.466v-275h425v65.744
		l-45.104-45.104L193.311,318.692l-11.027,37.774H30z M420.732,211.479l-38.891-38.891l28.055-28.055l38.891,38.891L420.732,211.479
		z M258.847,373.364l-54.925,16.034l16.033-54.924l140.673-140.672l38.891,38.891L258.847,373.364z M318.171,356.466L455,219.637
		v136.829H318.171z"/>
</g>
<g>
</g>
<g>
</g>
<g>
</g>
<g>
</g>
<g>
</g>
<g>
</g>
<g>
</g>
<g>
</g>
<g>
</g>
<g>
</g>
<g>
</g>
<g>
</g>
<g>
</g>
<g>
</g>
<g>
</g>
</svg>
