<?xml version="1.0" encoding="iso-8859-1"?>
<!-- Generator: Adobe Illustrator 19.0.0, SVG Export Plug-In . SVG Version: 6.00 Build 0)  -->
<svg version="1.1" id="Layer_1" xmlns="http://www.w3.org/2000/svg" xmlns:xlink="http://www.w3.org/1999/xlink" x="0px" y="0px"
	 viewBox="0 0 485 485" style="enable-background:new 0 0 485 485;" xml:space="preserve">
<g>
	<path d="M270.553,264.837h30c0-26.824-18.291-49.448-43.053-56.078v-12.579h-30v12.579c-24.762,6.63-43.053,29.253-43.053,56.078
		c0,27.442,14.402,47.104,40.553,55.365l2.5,0.79v57.858c-7.838-4.981-13.053-13.734-13.053-23.688h-30
		c0,26.824,18.291,49.448,43.053,56.078v12.579h30V411.24c24.762-6.63,43.053-29.253,43.053-56.078
		c0-27.442-14.402-47.104-40.552-55.365l-2.501-0.79v-57.858C265.338,246.13,270.553,254.883,270.553,264.837z M214.447,264.837
		c0-9.954,5.216-18.708,13.053-23.688v47.784C218.432,284.225,214.447,276.71,214.447,264.837z M270.553,355.163
		c0,9.954-5.216,18.708-13.053,23.688v-47.784C266.568,335.775,270.553,343.29,270.553,355.163z"/>
	<path d="M394.693,194.796c-18.388-26.555-43.049-47.616-71.859-61.494l33.047-122.881h-25.148l-3.8,2.56
		c-7.027,4.734-11.669,7.862-22.559,7.862c-10.889,0-15.531-3.127-22.559-7.862C273.231,7.197,262.547,0,242.496,0
		c-20.05,0-30.734,7.197-39.319,12.981c-7.027,4.734-11.669,7.861-22.557,7.861c-10.886,0-15.528-3.127-22.557-7.863l-3.799-2.56
		h-25.149l33.051,122.882c-28.81,13.878-53.471,34.939-71.859,61.494C68.844,225.791,57.5,262.169,57.5,300v185h370V300
		C427.5,262.169,416.156,225.791,394.693,194.796z M180.62,50.842c20.05,0,30.734-7.197,39.319-12.981
		C226.966,33.127,231.608,30,242.496,30c10.889,0,15.531,3.127,22.559,7.862c8.585,5.783,19.269,12.98,39.32,12.98
		c3.521,0,6.753-0.222,9.736-0.619l-20.61,76.634H191.498l-20.612-76.634C173.869,50.621,177.1,50.842,180.62,50.842z M397.5,455
		h-310V300c0-63.129,37.4-119.003,95.497-143.143h119.006C360.1,180.997,397.5,236.871,397.5,300V455z"/>
</g>
<g>
</g>
<g>
</g>
<g>
</g>
<g>
</g>
<g>
</g>
<g>
</g>
<g>
</g>
<g>
</g>
<g>
</g>
<g>
</g>
<g>
</g>
<g>
</g>
<g>
</g>
<g>
</g>
<g>
</g>
</svg>
