<?xml version="1.0" encoding="iso-8859-1"?>
<!-- Generator: Adobe Illustrator 19.0.0, SVG Export Plug-In . SVG Version: 6.00 Build 0)  -->
<svg version="1.1" id="Layer_1" xmlns="http://www.w3.org/2000/svg" xmlns:xlink="http://www.w3.org/1999/xlink" x="0px" y="0px"
	 viewBox="0 0 485 485" style="enable-background:new 0 0 485 485;" xml:space="preserve">
<path d="M470,59.348c-14.785,0-34.189-6.719-54.733-13.833c-27.341-9.467-58.328-20.197-91.065-20.197
	c-28.767,0-61.856,9.541-81.701,22.608c-19.846-13.066-52.936-22.608-81.701-22.608c-32.737,0-63.725,10.73-91.065,20.197
	C49.189,52.629,29.785,59.348,15,59.348H0v400.333h15c19.832,0,41.553-7.521,64.55-15.484c26.331-9.117,53.559-18.545,81.249-18.545
	c22.643,0,40.884,7.404,54.217,22.005l4.461,4.885l46.046,0.001l4.462-4.886c13.333-14.602,31.574-22.006,54.217-22.006
	c27.69,0,54.918,9.428,81.249,18.545c22.997,7.963,44.718,15.484,64.55,15.484h15V59.348H470z M455,88.083v269.51
	c-11.942-2.456-25.566-7.172-39.733-12.078c-27.341-9.467-58.328-20.197-91.065-20.197c-22.375,0-47.362,5.774-66.701,14.487V73.949
	c8.47-6.106,25.054-13.008,43.75-16.444v165.002l55-29.504l55,29.504V75.867C426.489,81.111,441.133,85.89,455,88.083z
	 M331.25,55.54c16.887,0.937,33.587,5.073,50,10.216V172.37l-25-13.411l-25,13.411V55.54z M79.55,73.864
	c26.331-9.117,53.559-18.545,81.249-18.545c27.146,0,54.858,10.094,66.701,18.631v265.857
	c-19.339-8.714-44.327-14.488-66.701-14.488c-32.737,0-63.725,10.73-91.065,20.197c-14.167,4.906-27.792,9.622-39.734,12.078V88.083
	C45.618,85.614,62.221,79.864,79.55,73.864z M160.799,395.652c-32.737,0-63.725,10.73-91.065,20.197
	c-14.167,4.906-27.792,9.623-39.734,12.08V388.08c15.618-2.47,32.221-8.216,49.55-14.216c26.331-9.117,53.559-18.545,81.249-18.545
	c27.146,0,54.858,10.094,66.701,18.631v44.28C213.322,406.508,191.822,395.652,160.799,395.652z M415.267,415.849
	c-27.341-9.467-58.328-20.197-91.065-20.197c-31.023,0-52.524,10.857-66.701,22.578v-44.281
	c11.842-8.537,39.553-18.631,66.701-18.631c27.69,0,54.918,9.428,81.249,18.545c17.329,6,33.932,11.746,49.55,14.216v39.849
	C443.059,425.472,429.433,420.754,415.267,415.849z"/>
<g>
</g>
<g>
</g>
<g>
</g>
<g>
</g>
<g>
</g>
<g>
</g>
<g>
</g>
<g>
</g>
<g>
</g>
<g>
</g>
<g>
</g>
<g>
</g>
<g>
</g>
<g>
</g>
<g>
</g>
</svg>
