<?xml version="1.0" encoding="iso-8859-1"?>
<!-- Generator: Adobe Illustrator 19.0.0, SVG Export Plug-In . SVG Version: 6.00 Build 0)  -->
<svg version="1.1" id="Layer_1" xmlns="http://www.w3.org/2000/svg" xmlns:xlink="http://www.w3.org/1999/xlink" x="0px" y="0px"
	 viewBox="0 0 485 485" style="enable-background:new 0 0 485 485;" xml:space="preserve">
<g>
	<path d="M0,0v485h485V0H0z M303.333,30v425H181.667V30H303.333z M30,30h121.667v425H30V30z M455,455H333.333V30H455V455z"/>
	<path d="M394.167,419.167c13.785,0,25-11.215,25-25s-11.215-25-25-25s-25,11.215-25,25S380.382,419.167,394.167,419.167z"/>
	<rect x="379.167" y="70.833" width="30" height="155.82"/>
	<path d="M242.5,419.167c13.785,0,25-11.215,25-25s-11.215-25-25-25s-25,11.215-25,25S228.715,419.167,242.5,419.167z"/>
	<rect x="227.5" y="70.833" width="30" height="155.82"/>
	<path d="M90.833,369.167c-13.785,0-25,11.215-25,25s11.215,25,25,25s25-11.215,25-25S104.618,369.167,90.833,369.167z"/>
	<rect x="75.833" y="70.833" width="30" height="155.82"/>
</g>
<g>
</g>
<g>
</g>
<g>
</g>
<g>
</g>
<g>
</g>
<g>
</g>
<g>
</g>
<g>
</g>
<g>
</g>
<g>
</g>
<g>
</g>
<g>
</g>
<g>
</g>
<g>
</g>
<g>
</g>
</svg>
