<?xml version="1.0" encoding="iso-8859-1"?>
<!-- Generator: Adobe Illustrator 19.0.0, SVG Export Plug-In . SVG Version: 6.00 Build 0)  -->
<svg version="1.1" id="Layer_1" xmlns="http://www.w3.org/2000/svg" xmlns:xlink="http://www.w3.org/1999/xlink" x="0px" y="0px"
	 viewBox="0 0 485 485" style="enable-background:new 0 0 485 485;" xml:space="preserve">
<g>
	<path d="M222.5,70h-15C93.084,70,0,163.084,0,277.5S93.084,485,207.5,485S415,391.916,415,277.5v-15H222.5V70z M384.372,292.5
		C376.729,383.378,300.32,455,207.5,455C109.626,455,30,375.374,30,277.5c0-92.82,71.622-169.229,162.5-176.872V292.5H384.372z"/>
	<path d="M277.5,0h-15v222.5H485v-15C485,93.084,391.916,0,277.5,0z M292.5,192.5V30.628
		c85.93,7.227,154.645,75.942,161.872,161.872H292.5z"/>
</g>
<g>
</g>
<g>
</g>
<g>
</g>
<g>
</g>
<g>
</g>
<g>
</g>
<g>
</g>
<g>
</g>
<g>
</g>
<g>
</g>
<g>
</g>
<g>
</g>
<g>
</g>
<g>
</g>
<g>
</g>
</svg>
