<?xml version="1.0" encoding="iso-8859-1"?>
<!-- Generator: Adobe Illustrator 19.0.0, SVG Export Plug-In . SVG Version: 6.00 Build 0)  -->
<svg version="1.1" id="Layer_1" xmlns="http://www.w3.org/2000/svg" xmlns:xlink="http://www.w3.org/1999/xlink" x="0px" y="0px"
	 viewBox="0 0 485 485" style="enable-background:new 0 0 485 485;" xml:space="preserve">
<g>
	<path d="M268.333,277.5c0,33.543-27.29,60.833-60.833,60.833s-60.833-27.29-60.833-60.833s27.29-60.833,60.833-60.833h15V70h-15
		C93.084,70,0,163.084,0,277.5S93.084,485,207.5,485S415,391.916,415,277.5v-15H268.333V277.5z M297.095,292.5h87.277
		C376.729,383.378,300.32,455,207.5,455C109.626,455,30,375.374,30,277.5c0-92.82,71.622-169.229,162.5-176.872v87.277
		c-42.974,7.17-75.833,44.618-75.833,89.595c0,50.086,40.748,90.833,90.833,90.833C252.478,368.333,289.925,335.474,297.095,292.5z"
		/>
	<path d="M277.5,0h-15v146.667h15c33.543,0,60.833,27.29,60.833,60.833v15H485v-15C485,93.084,391.916,0,277.5,0z M367.095,192.5
		c-6.356-38.093-36.502-68.239-74.595-74.595V30.628c85.93,7.227,154.645,75.942,161.872,161.872H367.095z"/>
</g>
<g>
</g>
<g>
</g>
<g>
</g>
<g>
</g>
<g>
</g>
<g>
</g>
<g>
</g>
<g>
</g>
<g>
</g>
<g>
</g>
<g>
</g>
<g>
</g>
<g>
</g>
<g>
</g>
<g>
</g>
</svg>
