<?xml version="1.0" encoding="iso-8859-1"?>
<!-- Generator: Adobe Illustrator 19.0.0, SVG Export Plug-In . SVG Version: 6.00 Build 0)  -->
<svg version="1.1" id="Layer_1" xmlns="http://www.w3.org/2000/svg" xmlns:xlink="http://www.w3.org/1999/xlink" x="0px" y="0px"
	 viewBox="0 0 485 485" style="enable-background:new 0 0 485 485;" xml:space="preserve">
<g>
	<path d="M413.974,71.026C368.171,25.225,307.274,0,242.5,0S116.829,25.225,71.026,71.026C25.225,116.829,0,177.726,0,242.5
		s25.225,125.671,71.026,171.474C116.829,459.775,177.726,485,242.5,485s125.671-25.225,171.474-71.026
		C459.775,368.171,485,307.274,485,242.5S459.775,116.829,413.974,71.026z M455,242.5c0,33.326-7.72,64.88-21.452,92.981
		l-105.965-61.179c3.714-9.903,5.75-20.618,5.75-31.802c0-44.977-32.861-82.417-75.833-89.588V30.536
		C367.699,38.259,455,130.371,455,242.5z M181.667,242.5c0-33.544,27.29-60.833,60.833-60.833c33.543,0,60.833,27.29,60.833,60.833
		s-27.29,60.833-60.833,60.833C208.956,303.333,181.667,276.044,181.667,242.5z M227.5,30.536v122.375
		c-42.973,7.172-75.833,44.611-75.833,89.588c0,11.184,2.037,21.899,5.75,31.802L51.452,335.481C37.72,307.38,30,275.826,30,242.5
		C30,130.371,117.301,38.259,227.5,30.536z M242.5,455c-73.141,0-137.767-37.145-176.012-93.559l105.961-61.177
		c16.674,20.185,41.885,33.07,70.05,33.07c28.165,0,53.376-12.885,70.05-33.07l105.961,61.177
		C380.267,417.855,315.641,455,242.5,455z"/>
</g>
<g>
</g>
<g>
</g>
<g>
</g>
<g>
</g>
<g>
</g>
<g>
</g>
<g>
</g>
<g>
</g>
<g>
</g>
<g>
</g>
<g>
</g>
<g>
</g>
<g>
</g>
<g>
</g>
<g>
</g>
</svg>
