<?xml version="1.0" encoding="iso-8859-1"?>
<!-- Generator: Adobe Illustrator 19.0.0, SVG Export Plug-In . SVG Version: 6.00 Build 0)  -->
<svg version="1.1" id="Layer_1" xmlns="http://www.w3.org/2000/svg" xmlns:xlink="http://www.w3.org/1999/xlink" x="0px" y="0px"
	 viewBox="0 0 485 485" style="enable-background:new 0 0 485 485;" xml:space="preserve">
<g>
	<path d="M369.037,0c-47.952,0-89.496,32.201-102.399,77.087c-7.884-1.145-15.942-1.749-24.139-1.749s-16.254,0.604-24.139,1.749
		C205.459,32.201,163.915,0,115.963,0C57.218,0,9.426,47.792,9.426,106.537v271.925C9.426,437.208,57.218,485,115.963,485
		c47.952,0,89.496-32.201,102.399-77.087c7.884,1.145,15.942,1.749,24.139,1.749s16.254-0.604,24.139-1.749
		C279.541,452.799,321.085,485,369.037,485c58.745,0,106.537-47.792,106.537-106.538V106.537C475.574,47.792,427.782,0,369.037,0z
		 M369.037,30c42.203,0,76.537,34.334,76.537,76.537c0,31.892-19.944,60.151-48.894,71.384
		c-18.497-43.995-55.293-78.473-100.811-93.847C305.552,52.516,335.047,30,369.037,30z M115.963,30
		c33.99,0,63.485,22.516,73.167,54.074c-45.518,15.374-82.314,49.852-100.811,93.847c-28.949-11.233-48.894-39.492-48.894-71.384
		C39.426,64.334,73.76,30,115.963,30z M39.426,180.541c10.99,11.398,24.539,20.381,39.818,26.002
		c-2.55,11.586-3.906,23.615-3.906,35.957c0,6.858,0.425,13.618,1.231,20.262c-22.441-13.576-37.142-38.29-37.142-65.583V180.541z
		 M39.426,271.274c12.65,13.046,28.488,22.699,45.819,27.927c8.911,24.638,23.451,46.604,42.068,64.33
		c-3.722,0.549-7.508,0.826-11.349,0.826c-42.203,0-76.537-34.334-76.537-76.537V271.274z M115.963,455
		c-42.203,0-76.537-34.334-76.537-76.538V361.85c19.382,20.032,46.528,32.508,76.537,32.508c14.099,0,28.141-2.836,41.092-8.239
		c10.061,6.009,20.799,10.997,32.076,14.807C179.448,432.484,149.953,455,115.963,455z M105.337,242.5
		c0-75.632,61.531-137.163,137.163-137.163S379.663,166.868,379.663,242.5S318.132,379.663,242.5,379.663
		S105.337,318.132,105.337,242.5z M445.574,378.462c0,42.203-34.334,76.538-76.537,76.538c-33.99,0-63.485-22.516-73.167-54.074
		c11.277-3.809,22.015-8.798,32.076-14.807c12.95,5.403,26.992,8.239,41.092,8.239c30.009,0,57.155-12.476,76.537-32.508V378.462z
		 M369.037,364.358c-3.841,0-7.627-0.277-11.349-0.826c18.617-17.726,33.157-39.692,42.068-64.33
		c17.33-5.228,33.168-14.882,45.819-27.927v16.547C445.574,330.023,411.24,364.358,369.037,364.358z M445.574,197.179
		c0,27.293-14.701,52.007-37.142,65.583c0.806-6.644,1.231-13.404,1.231-20.262c0-12.341-1.356-24.37-3.906-35.957
		c15.278-5.621,28.827-14.604,39.818-26.002V197.179z"/>
	<path d="M270.554,197.337h30c0-26.824-18.292-49.448-43.054-56.078v-12.579h-30v12.579c-24.762,6.63-43.054,29.253-43.054,56.078
		c0,27.442,14.401,47.104,40.553,55.365l2.501,0.79v57.858c-7.838-4.98-13.054-13.734-13.054-23.688h-30
		c0,26.824,18.292,49.448,43.054,56.078v12.579h30V343.74c24.762-6.63,43.054-29.253,43.054-56.078
		c0-27.442-14.401-47.104-40.553-55.365l-2.501-0.79v-57.858C265.338,178.63,270.554,187.383,270.554,197.337z M214.446,197.337
		c0-9.954,5.216-18.708,13.054-23.688v47.784C218.431,216.725,214.446,209.21,214.446,197.337z M270.554,287.663
		c0,9.954-5.216,18.708-13.054,23.688v-47.784C266.569,268.275,270.554,275.79,270.554,287.663z"/>
</g>
<g>
</g>
<g>
</g>
<g>
</g>
<g>
</g>
<g>
</g>
<g>
</g>
<g>
</g>
<g>
</g>
<g>
</g>
<g>
</g>
<g>
</g>
<g>
</g>
<g>
</g>
<g>
</g>
<g>
</g>
</svg>
