<?xml version="1.0" encoding="iso-8859-1"?>
<!-- Generator: Adobe Illustrator 19.0.0, SVG Export Plug-In . SVG Version: 6.00 Build 0)  -->
<svg version="1.1" id="Layer_1" xmlns="http://www.w3.org/2000/svg" xmlns:xlink="http://www.w3.org/1999/xlink" x="0px" y="0px"
	 viewBox="0 0 485 485" style="enable-background:new 0 0 485 485;" xml:space="preserve">
<g>
	<path d="M0,319.573h18.598V485h138.641V319.573h18.598V121.03H0V319.573z M30,151.03h42.918v93.543h30V151.03h42.918v138.543
		h-18.598V455H48.598V289.573H30V151.03z"/>
	<path d="M87.918,100.989c27.843,0,50.494-22.652,50.494-50.495S115.761,0,87.918,0S37.424,22.651,37.424,50.494
		S60.076,100.989,87.918,100.989z M87.918,30c11.3,0,20.494,9.194,20.494,20.494c0,11.301-9.194,20.495-20.494,20.495
		c-11.301,0-20.495-9.194-20.495-20.495C67.424,39.194,76.618,30,87.918,30z"/>
	<path d="M211.89,0v485H485V0H211.89z M455,455H241.89V30H455V455z"/>
	<rect x="273.939" y="207.5" width="30" height="70"/>
</g>
<g>
</g>
<g>
</g>
<g>
</g>
<g>
</g>
<g>
</g>
<g>
</g>
<g>
</g>
<g>
</g>
<g>
</g>
<g>
</g>
<g>
</g>
<g>
</g>
<g>
</g>
<g>
</g>
<g>
</g>
</svg>
