<?xml version="1.0" encoding="iso-8859-1"?>
<!-- Generator: Adobe Illustrator 19.0.0, SVG Export Plug-In . SVG Version: 6.00 Build 0)  -->
<svg version="1.1" id="Layer_1" xmlns="http://www.w3.org/2000/svg" xmlns:xlink="http://www.w3.org/1999/xlink" x="0px" y="0px"
	 viewBox="0 0 485 485" style="enable-background:new 0 0 485 485;" xml:space="preserve">
<g>
	<path d="M450.099,307.126c0-27.516-22.386-49.901-49.902-49.901c-27.516,0-49.901,22.386-49.901,49.901
		c0,27.516,22.386,49.902,49.901,49.902C427.713,357.028,450.099,334.642,450.099,307.126z M380.295,307.126
		c0-10.974,8.928-19.901,19.901-19.901c10.974,0,19.902,8.928,19.902,19.901c0,10.974-8.928,19.902-19.902,19.902
		C389.223,327.028,380.295,318.1,380.295,307.126z"/>
	<path d="M400.197,385.197c-46.761,0-84.804,38.042-84.804,84.803v15H485v-15C485,423.24,446.958,385.197,400.197,385.197z
		 M347.48,455c6.54-22.949,27.698-39.803,52.717-39.803c25.019,0,46.176,16.854,52.716,39.803H347.48z"/>
	<path d="M400.197,99.803c27.516,0,49.902-22.386,49.902-49.901C450.099,22.386,427.713,0,400.197,0
		c-27.516,0-49.901,22.386-49.901,49.902C350.295,77.417,372.681,99.803,400.197,99.803z M400.197,30
		c10.974,0,19.902,8.928,19.902,19.902c0,10.974-8.928,19.901-19.902,19.901c-10.974,0-19.901-8.928-19.901-19.901
		C380.295,38.928,389.223,30,400.197,30z"/>
	<path d="M400.197,127.972c-46.761,0-84.803,38.042-84.803,84.803v15H485v-15C485,166.015,446.958,127.972,400.197,127.972z
		 M347.48,197.775c6.54-22.949,27.698-39.803,52.717-39.803s46.176,16.854,52.716,39.803H347.48z"/>
	<path d="M84.803,228.416c27.516,0,49.902-22.386,49.902-49.902s-22.386-49.902-49.902-49.902
		c-27.516,0-49.901,22.386-49.901,49.902S57.287,228.416,84.803,228.416z M84.803,158.612c10.974,0,19.902,8.928,19.902,19.902
		s-8.928,19.902-19.902,19.902c-10.974,0-19.901-8.928-19.901-19.902S73.829,158.612,84.803,158.612z"/>
	<path d="M84.803,256.584C38.042,256.584,0,294.627,0,341.388v15h169.606v-15C169.606,294.627,131.563,256.584,84.803,256.584z
		 M32.086,326.388c6.54-22.95,27.697-39.803,52.716-39.803s46.177,16.854,52.717,39.803H32.086z"/>
	<polygon points="324.064,386.112 324.064,356.112 257.5,356.112 257.5,128.888 324.064,128.888 324.064,98.888 227.5,98.888 
		227.5,227.5 157.771,227.5 157.771,257.5 227.5,257.5 227.5,386.112 	"/>
</g>
<g>
</g>
<g>
</g>
<g>
</g>
<g>
</g>
<g>
</g>
<g>
</g>
<g>
</g>
<g>
</g>
<g>
</g>
<g>
</g>
<g>
</g>
<g>
</g>
<g>
</g>
<g>
</g>
<g>
</g>
</svg>
