<?xml version="1.0" encoding="iso-8859-1"?>
<!-- Generator: Adobe Illustrator 17.1.0, SVG Export Plug-In . SVG Version: 6.00 Build 0)  -->
<!DOCTYPE svg PUBLIC "-//W3C//DTD SVG 1.1//EN" "http://www.w3.org/Graphics/SVG/1.1/DTD/svg11.dtd">
<svg version="1.1" id="Capa_1" xmlns="http://www.w3.org/2000/svg" xmlns:xlink="http://www.w3.org/1999/xlink" x="0px" y="0px"
	 viewBox="0 0 298 298" style="enable-background:new 0 0 298 298; fill: white;" xml:space="preserve">
<g>
	<path d="M272.5,248h-8.333v-82.569c8-1.383,14.375-5.273,18.587-11.156c5.375-7.505,6.596-17.529,3.203-27.507l-19.912-58.065
		c-0.498-1.464-0.879-2.9-1.879-4.31V24c0-4.418-3.249-8-7.667-8h-8.333V8c0-4.418-3.582-8-8-8c-4.418,0-8,3.582-8,8v8H224.5
		c-4.418,0-8.333,3.582-8.333,8v11h-133V24c0-4.418-3.249-8-7.667-8h-8.333V8c0-4.418-3.582-8-8-8s-8,3.582-8,8v8H43.5
		c-4.418,0-8.333,3.582-8.333,8v42.676c0,0.669-0.356,1.343-0.587,2.022l-19.706,58.073c-3.392,9.973-2.379,19.997,2.996,27.503
		c4.029,5.627,10.297,9.438,17.297,10.969V248H25.5c-13.785,0-25,11.215-25,25s11.215,25,25,25h247c13.785,0,25-11.215,25-25
		S286.285,248,272.5,248z M272.5,282h-82.566l-11.249-18H272.5c4.963,0,9,4.037,9,9S277.463,282,272.5,282z M127.934,282l10-16
		h23.133l10,16H127.934z M25.5,282c-4.963,0-9-4.037-9-9s4.037-9,9-9h94.815l-11.25,18H25.5z M31.087,144.958
		c-2.367-3.306-2.716-7.935-0.983-13.031l19.789-58.073C54.105,61.466,68.798,51,81.977,51h137.045
		c13.18,0,27.872,10.465,32.086,22.857l19.787,58.065c1.734,5.101,1.386,9.73-0.981,13.035c-2.329,3.252-6.515,5.042-11.786,5.042
		h-11.605l-8.094-24.509c-1.083-3.277-4.145-5.491-7.597-5.491h-38.664c-3.451,0-6.514,2.214-7.597,5.491L176.477,150h-53.455
		l-8.094-24.509c-1.083-3.277-4.146-5.491-7.597-5.491H68.668c-3.451,0-6.514,2.214-7.597,5.491L52.977,150H42.873
		C37.601,150,33.415,148.209,31.087,144.958z M51.167,46.067V32h16v5.458C62.167,39.373,56.167,42.329,51.167,46.067z M248.167,32
		v13.319c-5-3.596-10-6.411-16-8.186V32H248.167z M51.167,166h7.594c3.451,0,6.514-2.214,7.597-5.491L74.451,136h27.098
		l8.094,24.509c1.083,3.277,4.146,5.491,7.597,5.491h65.021c3.451,0,6.514-2.214,7.597-5.491L197.951,136h27.098l8.094,24.509
		c1.083,3.277,4.146,5.491,7.597,5.491h7.428v34h-74v-9c0-4.418-3.249-8-7.667-8h-32c-4.418,0-8.333,3.582-8.333,8v9h-75V166z
		 M142.167,199h16v49h-16V199z M174.167,248v-32h74v32H174.167z M51.167,216h75v32h-75V216z"/>
</g>
<g>
</g>
<g>
</g>
<g>
</g>
<g>
</g>
<g>
</g>
<g>
</g>
<g>
</g>
<g>
</g>
<g>
</g>
<g>
</g>
<g>
</g>
<g>
</g>
<g>
</g>
<g>
</g>
<g>
</g>
</svg>
