<?xml version="1.0" encoding="iso-8859-1"?>
<!-- Generator: Adobe Illustrator 17.1.0, SVG Export Plug-In . SVG Version: 6.00 Build 0)  -->
<!DOCTYPE svg PUBLIC "-//W3C//DTD SVG 1.1//EN" "http://www.w3.org/Graphics/SVG/1.1/DTD/svg11.dtd">
<svg version="1.1" id="Capa_1" xmlns="http://www.w3.org/2000/svg" xmlns:xlink="http://www.w3.org/1999/xlink" x="0px" y="0px"
	 viewBox="0 0 297.166 297.166" style="enable-background:new 0 0 297.166 297.166; fill: white;" xml:space="preserve">
<g>
	<circle cx="148.583" cy="98.583" r="8"/>
	<path d="M296.507,111.903l-42.883-99c-1.268-2.927-4.151-4.82-7.341-4.82H52.166c-3.157,0-6.02,1.857-7.306,4.74l-44.166,99
		c-1.105,2.476-0.881,5.341,0.595,7.614c1.475,2.273,4.001,3.646,6.711,3.646h8.25v158c0,4.418,3.915,8,8.333,8h247
		c4.418,0,7.667-3.582,7.667-8v-158h9.916c2.694,0,5.208-1.356,6.688-3.609C297.332,117.222,297.578,114.376,296.507,111.903z
		 M121.25,273.083v-67h53v67H121.25z M32.25,206.083h73v67h-73V206.083z M190.25,206.083h73v67h-73V206.083z M263.25,190.083h-231
		v-67h66.166c2.507,0,4.869-1.175,6.381-3.175l44.222-58.478l43.305,58.417c1.509,2.035,3.893,3.235,6.427,3.235h64.5V190.083z
		 M57.358,24.083H241.03l35.952,83h-74.204l-47.27-63.765c-1.501-2.024-3.868-3.224-6.389-3.235c-0.013,0-0.025,0-0.038,0
		c-2.506,0-4.868,1.175-6.381,3.175l-48.266,63.825H20.329L57.358,24.083z"/>
	<path d="M92.25,224.083c0-4.418-3.582-8-8-8h-32c-4.418,0-8,3.582-8,8v32c0,4.418,3.582,8,8,8h32c4.418,0,8-3.582,8-8V224.083z
		 M76.25,248.083h-16v-16h16V248.083z"/>
	<path d="M251.25,224.083c0-4.418-3.582-8-8-8h-32c-4.418,0-8,3.582-8,8v32c0,4.418,3.582,8,8,8h32c4.418,0,8-3.582,8-8V224.083z
		 M235.25,248.083h-16v-16h16V248.083z"/>
	<path d="M92.25,141.083c0-4.418-3.582-8-8-8h-32c-4.418,0-8,3.582-8,8v32c0,4.418,3.582,8,8,8h32c4.418,0,8-3.582,8-8V141.083z
		 M76.25,165.083h-16v-16h16V165.083z"/>
	<path d="M172.25,141.083c0-4.418-3.582-8-8-8h-32c-4.418,0-8,3.582-8,8v32c0,4.418,3.582,8,8,8h32c4.418,0,8-3.582,8-8V141.083z
		 M156.25,165.083h-16v-16h16V165.083z"/>
	<path d="M251.25,141.083c0-4.418-3.582-8-8-8h-32c-4.418,0-8,3.582-8,8v32c0,4.418,3.582,8,8,8h32c4.418,0,8-3.582,8-8V141.083z
		 M219.25,149.083h16v16h-16V149.083z"/>
</g>
<g>
</g>
<g>
</g>
<g>
</g>
<g>
</g>
<g>
</g>
<g>
</g>
<g>
</g>
<g>
</g>
<g>
</g>
<g>
</g>
<g>
</g>
<g>
</g>
<g>
</g>
<g>
</g>
<g>
</g>
</svg>
