<?xml version="1.0" encoding="iso-8859-1"?>
<!-- Generator: Adobe Illustrator 17.1.0, SVG Export Plug-In . SVG Version: 6.00 Build 0)  -->
<!DOCTYPE svg PUBLIC "-//W3C//DTD SVG 1.1//EN" "http://www.w3.org/Graphics/SVG/1.1/DTD/svg11.dtd">
<svg version="1.1" id="Capa_1" xmlns="http://www.w3.org/2000/svg" xmlns:xlink="http://www.w3.org/1999/xlink" x="0px" y="0px"
	 viewBox="0 0 297 297" style="enable-background:new 0 0 297 297; fill: white;" xml:space="preserve">
<g>
	<path d="M272,230h-8.333V25c0-4.418-3.249-8-7.667-8H40c-4.418,0-8.333,3.582-8.333,8v35c0,4.418,3.915,8,8.333,8h10.667v32H40
		c-4.418,0-8.333,3.582-8.333,8v35c0,4.418,3.915,8,8.333,8h10.667v79H25c-13.785,0-25,11.215-25,25c0,13.785,11.215,25,25,25h247
		c13.785,0,25-11.215,25-25C297,241.215,285.785,230,272,230z M272,264H25c-4.963,0-9-4.037-9-9c0-4.963,4.037-9,9-9h247
		c4.963,0,9,4.037,9,9C281,259.963,276.963,264,272,264z M47.667,116H221c4.418,0,7.667-3.582,7.667-8V60c0-4.418-3.249-8-7.667-8
		H47.667V33h200v102h-200V116z M212.667,68v32h-57V68H212.667z M139.667,68v32h-73V68H139.667z M247.667,230h-91v-17H223
		c4.418,0,7.667-3.582,7.667-8v-32c0-4.418-3.249-8-7.667-8h-66.333v-14h91V230z M140.667,230h-42v-79h42V230z M156.667,197v-16h58
		v16H156.667z M82.667,151v79h-16v-79H82.667z"/>
</g>
<g>
</g>
<g>
</g>
<g>
</g>
<g>
</g>
<g>
</g>
<g>
</g>
<g>
</g>
<g>
</g>
<g>
</g>
<g>
</g>
<g>
</g>
<g>
</g>
<g>
</g>
<g>
</g>
<g>
</g>
</svg>
