<?xml version="1.0" encoding="iso-8859-1"?>
<!-- Generator: Adobe Illustrator 17.1.0, SVG Export Plug-In . SVG Version: 6.00 Build 0)  -->
<!DOCTYPE svg PUBLIC "-//W3C//DTD SVG 1.1//EN" "http://www.w3.org/Graphics/SVG/1.1/DTD/svg11.dtd">
<svg version="1.1" id="Capa_1" xmlns="http://www.w3.org/2000/svg" xmlns:xlink="http://www.w3.org/1999/xlink" x="0px" y="0px"
	 viewBox="0 0 297 297" style="enable-background:new 0 0 297 297; fill: white;" xml:space="preserve">
<g>
	<path d="M272,205.5h-24.005L248,186.743c9.479-3.209,16.325-12.184,16.325-22.733c0-13.234-10.766-24.001-23.999-24.001
		c-13.234,0-24.001,10.767-24.001,24.001c0,10.308,6.533,19.115,15.675,22.508c0,0,0.005,19.032-0.014,18.982h-42.319v-79H223
		c4.418,0,7.667-3.582,7.667-8v-69c0-4.418-3.249-8-7.667-8H42c-4.418,0-8.333,3.582-8.333,8v33v36v87H25c-13.785,0-25,11.215-25,25
		s11.215,25,25,25h247c13.785,0,25-11.215,25-25S285.785,205.5,272,205.5z M240.326,156.009c4.411,0,7.999,3.589,7.999,8.001
		c0,4.411-3.588,7.999-7.999,7.999c-4.412,0-8.001-3.588-8.001-7.999C232.325,159.598,235.914,156.009,240.326,156.009z M272,239.5
		H25c-4.963,0-9-4.037-9-9s4.037-9,9-9h247c4.963,0,9,4.037,9,9S276.963,239.5,272,239.5z M49.667,90.5h165v20h-165V90.5z
		 M49.667,57.5h165v17h-165V57.5z M173.667,205.5h-17v-79h17V205.5z M140.667,156.5v16h-58v-16H140.667z M49.667,126.5h91v14H75
		c-4.418,0-8.333,3.582-8.333,8v32c0,4.418,3.915,8,8.333,8h65.667v17h-91V126.5z"/>
</g>
<g>
</g>
<g>
</g>
<g>
</g>
<g>
</g>
<g>
</g>
<g>
</g>
<g>
</g>
<g>
</g>
<g>
</g>
<g>
</g>
<g>
</g>
<g>
</g>
<g>
</g>
<g>
</g>
<g>
</g>
</svg>
