<?xml version="1.0" encoding="iso-8859-1"?>
<!-- Generator: Adobe Illustrator 17.1.0, SVG Export Plug-In . SVG Version: 6.00 Build 0)  -->
<!DOCTYPE svg PUBLIC "-//W3C//DTD SVG 1.1//EN" "http://www.w3.org/Graphics/SVG/1.1/DTD/svg11.dtd">
<svg version="1.1" id="Capa_1" xmlns="http://www.w3.org/2000/svg" xmlns:xlink="http://www.w3.org/1999/xlink" x="0px" y="0px"
	 viewBox="0 0 297 297" style="enable-background:new 0 0 297 297; fill: white;" xml:space="preserve">
<g>
	<path d="M272,225h-8.333V30c0-4.418-3.249-8-7.667-8H84c-4.418,0-8.333,3.582-8.333,8v35c0,4.418,3.915,8,8.333,8h23.667v32H40
		c-4.418,0-8.333,3.582-8.333,8v112H25c-13.785,0-25,11.215-25,25c0,13.785,11.215,25,25,25h247c13.785,0,25-11.215,25-25
		C297,236.215,285.785,225,272,225z M272,259H25c-4.963,0-9-4.037-9-9s4.037-9,9-9h247c4.963,0,9,4.037,9,9S276.963,259,272,259z
		 M47.667,121H221c4.418,0,7.667-3.582,7.667-8V65c0-4.418-3.249-8-7.667-8H91.667V38h156v102H75c-4.418,0-8.333,3.582-8.333,8v48
		c0,4.418,3.915,8,8.333,8h172.667v19h-200V121z M212.667,73v32h-89V73H212.667z M172.667,188h-90v-32h90V188z M188.667,156h27v32
		h-27V156z M231.667,156h16v32h-16V156z"/>
</g>
<g>
</g>
<g>
</g>
<g>
</g>
<g>
</g>
<g>
</g>
<g>
</g>
<g>
</g>
<g>
</g>
<g>
</g>
<g>
</g>
<g>
</g>
<g>
</g>
<g>
</g>
<g>
</g>
<g>
</g>
</svg>
